# xmcd CD database file
#
# Track frame offsets:
#	150
#	16505
#	32422
#	49910
#	71782
#	88135
#	103360
#	116402
#	134907
#	156614
#	176531
#	195454
#	215291
#	228776
#	242816
#	253653
#	266321
#	282033
#
# Disc length: 3862 seconds
#
# Revision: 0
# Processed by: cddbd v1.4b41PL3 Copyright (c) Steve Scherf et al.
# Submitted via: Feurio! 1.61 - http://www.feurio.com
#
DISCID=fe0f1412
DTITLE=Shania Twain - Millenium Best 2000
DYEAR=1900
DGENRE=
TTITLE0=That Don't Impress Me Much
TTITLE1=You're Still The One
TTITLE2=Man! I Feel Like A Woman
TTITLE3=From This Moment On
TTITLE4=When
TTITLE5=You've Got A WAy
TTITLE6=Come On Over
TTITLE7=Any Man Of Mine
TTITLE8=The Woman In Me
TTITLE9=You Win My Love
TTITLE10=Home Is Were His Heart Is
TTITLE11=Whose Bed Have Your Boots Been Under
TTITLE12=What Made You Say That
TTITLE13=Still Under The Water
TTITLE14=Dance With The One That Brought You
TTITLE15=You Lay A Whole Lot Of Love On Me
TTITLE16=Crime Of The Century
TTITLE17=Amneris' Letter
EXTD=
EXTT0=
EXTT1=
EXTT2=
EXTT3=
EXTT4=
EXTT5=
EXTT6=
EXTT7=
EXTT8=
EXTT9=
EXTT10=
EXTT11=
EXTT12=
EXTT13=
EXTT14=
EXTT15=
EXTT16=
EXTT17=
PLAYORDER=
